HIERARCHY
ROOT Hips
{
	OFFSET 0.00000 0.00000 0.00000
	CHANNELS 6 Xposition Yposition Zposition Zrotation Yrotation Xrotation 
	JOINT RightUpLegDummy
	{
		OFFSET 0 0 0
		CHANNELS 3 Zrotation Yrotation Xrotation
		JOINT RightUpLeg
		{
			OFFSET -3.52197 -3.41223 0.04002
			CHANNELS 3 Zrotation Yrotation Xrotation
			JOINT RightLeg
			{
				OFFSET 0.00006 -17.42390 1.60435
				CHANNELS 3 Zrotation Yrotation Xrotation
				JOINT RightFoot
				{
					OFFSET 0.06154 -16.50078 -1.63900
					CHANNELS 3 Zrotation Yrotation Xrotation
					JOINT RightToes
					{
						OFFSET 0.00298 -1.73825 3.34613
						CHANNELS 3 Zrotation Yrotation Xrotation
						End Site
						{
							OFFSET 0.00480 -0.05416 3.85043
						}
					}
				}
			}
		}
	}
	JOINT SpineDummy
	{
		OFFSET 0 0 0
		CHANNELS 3 Zrotation Yrotation Xrotation
		JOINT Spine
		{
			OFFSET 0.00000 4.68130 0.00000
			CHANNELS 3 Zrotation Yrotation Xrotation
			JOINT Spine1
			{
				OFFSET -0.00000 10.10138 0.05002
				CHANNELS 3 Zrotation Yrotation Xrotation
				JOINT HEadDummy
				{
					OFFSET 0 0 0
					CHANNELS 3 Zrotation Yrotation Xrotation
					JOINT Head
					{
						OFFSET -0.00000 3.43865 0.00438
						CHANNELS 3 Zrotation Yrotation Xrotation
						End Site
						{
							OFFSET -0.11417 5.02924 0.98962
						}
					}
				}
				JOINT LeftShoulder1Dummy
				{
					OFFSET 0 0 0
					CHANNELS 3 Zrotation Yrotation Xrotation
					JOINT LeftShoulder1
					{
						OFFSET 3.53937 -0.14262 -0.08662
						CHANNELS 3 Zrotation Yrotation Xrotation
						JOINT LeftArm
						{
							OFFSET 4.04833 -0.00133 0.12681
							CHANNELS 3 Zrotation Yrotation Xrotation
							JOINT LeftForeArm
							{
								OFFSET 10.33880 -0.01036 -0.55515
								CHANNELS 3 Zrotation Yrotation Xrotation
								JOINT LeftHand
								{
									OFFSET 8.69677 0.07543 0.40060
									CHANNELS 3 Zrotation Yrotation Xrotation
									End Site
									{
										OFFSET 5.28377 -0.21905 0.59205
									}
								}
							}
						}
					}
				}
				JOINT RightShoulderDummy
				{
					OFFSET 0 0 0
					CHANNELS 3 Zrotation Yrotation Xrotation
					JOINT RightShoulder
					{
						OFFSET -3.53937 -0.14262 -0.08660
						CHANNELS 3 Zrotation Yrotation Xrotation
						JOINT RightArm
						{
							OFFSET -4.04833 -0.00133 0.12683
							CHANNELS 3 Zrotation Yrotation Xrotation
							JOINT RightForeArm
							{
								OFFSET -10.37987 -0.01039 -0.55511
								CHANNELS 3 Zrotation Yrotation Xrotation
								JOINT RightHand
								{
									OFFSET -8.67398 0.07538 0.40058
									CHANNELS 3 Zrotation Yrotation Xrotation
									End Site
									{
										OFFSET -5.24810 -0.21916 0.59204
									}
								}
							}
						}
					}
				}
			}
		}
	}
	JOINT LeftUpLegDummy
	{
		OFFSET 0 0 0
		CHANNELS 3 Zrotation Yrotation Xrotation
		JOINT LeftUpLeg
		{
			OFFSET 3.52197 -3.41223 0.04002
			CHANNELS 3 Zrotation Yrotation Xrotation
			JOINT LeftLeg
			{
				OFFSET -0.00012 -17.42399 1.60337
				CHANNELS 3 Zrotation Yrotation Xrotation
				JOINT LeftFoot
				{
					OFFSET -0.09972 -16.50070 -1.63802
					CHANNELS 3 Zrotation Yrotation Xrotation
					JOINT LeftToes
					{
						OFFSET -0.01575 -1.73823 3.34611
						CHANNELS 3 Zrotation Yrotation Xrotation
						End Site
						{
							OFFSET 0.03150 -0.01868 3.85031
						}
					}
				}
			}
		}
	}
}
MOTION
Frames: 15
Frame Time: 0.033333
-72.5424 39.5633 -5.0700 -31.6405 85.0693 -29.8610 0.0000 0.0000 0.0000 1.9265 -7.3807 -5.4416 -7.4013 -13.5505 22.8900 7.7531 0.2450 -15.8397 0.0000 0.0000 -0.0000 0.0000 0.0000 0.0000 4.7828 -1.2534 -15.4034 4.3088 -1.9522 23.3554 0.0000 0.0000 0.0000 -2.5787 8.1516 -5.7417 0.0000 0.0000 0.0000 -21.7887 -2.7217 1.7516 -57.8471 -16.2463 -18.4625 -12.1909 2.9671 35.7218 16.0703 -1.5628 -0.9478 0.0000 0.0000 0.0000 20.5098 1.6540 1.3897 58.6268 14.8902 0.8459 10.8123 11.4179 22.6247 -5.0407 1.0456 -0.2819 0.0000 0.0000 0.0000 -5.0449 -2.2781 0.9371 -176.4310 45.2472 173.7920 -1.2216 76.9636 167.9939 0.0000 0.0000 -0.0000
-72.5462 39.5634 -5.0654 -31.4598 85.0849 -29.6554 0.0000 0.0000 0.0000 1.9171 -7.3810 -5.4844 -7.4020 -13.5421 22.9049 7.7519 0.2451 -15.8389 0.0000 0.0000 -0.0000 0.0000 0.0000 0.0000 4.6982 -1.2796 -15.5093 4.3978 -2.0097 23.4732 0.0000 0.0000 0.0000 -2.5429 8.0226 -5.4654 0.0000 0.0000 0.0000 -21.9118 -2.6636 1.7424 -57.7455 -16.2712 -18.4708 -12.1922 2.9190 35.7380 16.0189 -1.6009 -0.9533 0.0000 0.0000 0.0000 20.3586 1.6301 1.3760 58.7455 14.9754 0.9805 10.8307 11.4252 22.3239 -5.1556 0.9082 -0.2799 0.0000 0.0000 0.0000 -5.0772 -2.2952 0.9020 -176.3836 44.2032 173.8022 -0.9060 75.9139 168.3779 0.0000 0.0000 -0.0000
-72.5483 39.5645 -5.0583 -31.3684 85.0678 -29.5469 0.0000 0.0000 0.0000 1.9322 -7.3721 -5.5007 -7.3868 -13.5301 22.8867 7.7418 0.2447 -15.8304 0.0000 0.0000 -0.0000 0.0000 0.0000 0.0000 4.7030 -1.3028 -15.6453 4.3810 -2.0351 23.5963 0.0000 0.0000 0.0000 -2.2986 7.9358 -4.7912 0.0000 0.0000 0.0000 -21.9878 -2.5991 1.7286 -57.6729 -16.2262 -18.4538 -12.2034 2.7701 35.7824 16.0164 -1.6987 -0.9650 0.0000 0.0000 0.0000 20.2404 1.5973 1.3616 58.8415 15.0835 0.9346 10.8960 11.3296 22.1774 -5.3188 0.7390 -0.2772 0.0000 0.0000 0.0000 -5.0656 -2.2806 0.8877 -176.3575 43.8622 173.8263 -0.8373 75.5514 168.4669 0.0000 0.0000 -0.0000
-72.5479 39.5672 -5.0513 -31.1169 84.9780 -29.2988 0.0000 0.0000 0.0000 1.9731 -7.3270 -5.4794 -7.3653 -13.4979 22.8294 7.7162 0.2428 -15.8060 0.0000 0.0000 -0.0000 0.0000 0.0000 0.0000 4.8383 -1.2658 -15.7534 4.2086 -1.9518 23.6816 0.0000 0.0000 0.0000 -1.9353 7.8604 -4.0116 0.0000 0.0000 0.0000 -21.9182 -2.5626 1.7143 -57.7153 -16.1883 -18.4203 -12.2037 2.6520 35.9151 15.8697 -1.8153 -0.9711 0.0000 0.0000 0.0000 20.2771 1.5658 1.3549 58.8158 15.1407 0.7763 10.9576 11.2141 22.2346 -5.4415 0.6391 -0.2760 0.0000 0.0000 0.0000 -5.0182 -2.2427 0.9032 -176.3627 44.2954 173.8385 -1.0022 76.0288 168.2569 0.0000 0.0000 -0.0000
-72.5527 39.5683 -5.0426 -30.1734 84.8281 -28.3661 0.0000 0.0000 0.0000 2.0021 -7.2676 -5.4968 -7.3645 -13.3977 22.8250 7.6924 0.2430 -15.7948 0.0000 0.0000 -0.0000 0.0000 0.0000 0.0000 4.9721 -1.1668 -15.8047 4.0220 -1.7910 23.7480 0.0000 0.0000 0.0000 -1.7124 7.7531 -3.5740 0.0000 0.0000 0.0000 -21.8039 -2.5544 1.7055 -57.7730 -16.2368 -18.4028 -12.1920 2.6548 36.0165 15.4636 -1.8539 -0.9505 0.0000 0.0000 0.0000 20.3929 1.5258 1.3497 58.7349 15.1724 0.7688 10.9663 11.2030 22.2363 -5.4965 0.6251 -0.2783 0.0000 0.0000 0.0000 -5.0057 -2.2361 0.9077 -176.3650 44.1756 173.8197 -1.0681 76.0870 168.1739 0.0000 0.0000 -0.0000
-72.5654 39.5687 -5.0312 -28.8576 84.6809 -27.0691 0.0000 0.0000 0.0000 2.0041 -7.2342 -5.5662 -7.3794 -13.2411 22.9087 7.6764 0.2430 -15.8170 0.0000 0.0000 -0.0000 0.0000 0.0000 0.0000 5.0269 -1.0668 -15.7723 3.9171 -1.6414 23.7732 0.0000 0.0000 0.0000 -1.5281 7.7509 -3.4568 0.0000 0.0000 0.0000 -21.7477 -2.5727 1.7074 -57.7534 -16.2920 -18.3845 -12.2012 2.6869 35.9899 15.1255 -1.8489 -0.9284 0.0000 0.0000 0.0000 20.4927 1.5064 1.3492 58.6725 15.2130 0.7889 10.9463 11.2318 22.2824 -5.4796 0.6946 -0.2798 0.0000 0.0000 0.0000 -5.0332 -2.2613 0.8961 -176.3614 43.3312 173.7882 -0.9054 75.4675 168.3789 0.0000 0.0000 -0.0000
-72.5781 39.5687 -5.0207 -28.0904 84.6040 -26.3294 0.0000 0.0000 0.0000 1.9993 -7.2386 -5.6093 -7.3721 -13.1249 22.9811 7.6443 0.2417 -15.8399 0.0000 0.0000 -0.0000 0.0000 0.0000 0.0000 5.0277 -1.0178 -15.7082 3.8983 -1.5720 23.7685 0.0000 0.0000 0.0000 -1.4218 7.7248 -3.5063 0.0000 0.0000 0.0000 -21.7458 -2.5929 1.7130 -57.7098 -16.2774 -18.3288 -12.2379 2.6518 35.9980 15.1953 -1.9506 -0.9456 0.0000 0.0000 0.0000 20.5370 1.5358 1.3592 58.6328 15.2476 0.5800 10.9475 11.1740 22.5806 -5.4352 0.8114 -0.2825 0.0000 0.0000 0.0000 -5.0455 -2.2677 0.8939 -176.3718 42.7353 173.7660 -0.7580 74.9826 168.5669 0.0000 0.0000 -0.0000
-72.5830 39.5685 -5.0151 -28.1344 84.6088 -26.3882 0.0000 0.0000 0.0000 1.9973 -7.2630 -5.5937 -7.3335 -13.1136 22.9660 7.5780 0.2385 -15.8302 0.0000 0.0000 -0.0000 0.0000 0.0000 0.0000 5.0019 -1.0128 -15.7221 3.9518 -1.5853 23.8198 0.0000 0.0000 0.0000 -1.5381 7.3803 -3.6368 0.0000 0.0000 0.0000 -21.7540 -2.5683 1.7065 -57.7301 -16.2631 -18.2560 -12.2654 2.6097 36.1298 15.5515 -2.1068 -0.9882 0.0000 0.0000 0.0000 20.5216 1.5582 1.3645 58.6078 15.2730 0.2815 10.9724 11.0622 22.9358 -5.4551 0.9056 -0.2872 0.0000 0.0000 0.0000 -5.0304 -2.2480 0.8968 -176.3893 42.6950 173.7520 -0.7356 74.9138 168.5969 0.0000 0.0000 -0.0000
-72.5825 39.5683 -5.0133 -28.3689 84.6452 -26.6048 0.0000 0.0000 0.0000 1.9869 -7.2849 -5.5848 -7.3041 -13.1579 22.9258 7.5186 0.2351 -15.8111 0.0000 0.0000 -0.0000 0.0000 0.0000 0.0000 4.9699 -1.0201 -15.8340 4.0207 -1.6250 23.9542 0.0000 0.0000 0.0000 -1.7936 6.8466 -3.8324 0.0000 0.0000 0.0000 -21.7604 -2.4978 1.6871 -57.7836 -16.3085 -18.2225 -12.2672 2.6409 36.1163 15.8926 -2.0500 -1.0030 0.0000 0.0000 0.0000 20.4966 1.4998 1.3476 58.5975 15.3273 0.1695 10.9994 10.9914 23.0754 -5.5542 0.9426 -0.2940 0.0000 0.0000 0.0000 -5.0301 -2.2460 0.8734 -176.3848 42.4773 173.7382 -0.6864 74.6479 168.6619 0.0000 0.0000 -0.0000
-72.5832 39.5681 -5.0104 -28.3437 84.6638 -26.5406 0.0000 0.0000 0.0000 1.9865 -7.2858 -5.6263 -7.3097 -13.1809 22.9270 7.5269 0.2342 -15.8122 0.0000 0.0000 -0.0000 0.0000 0.0000 0.0000 4.9934 -1.0251 -15.9432 3.9929 -1.6280 24.0748 0.0000 0.0000 0.0000 -1.8964 6.6271 -4.0441 0.0000 0.0000 0.0000 -21.7615 -2.4427 1.6717 -57.7831 -16.3422 -18.2390 -12.2660 2.7002 35.8100 16.1264 -1.7467 -0.9782 0.0000 0.0000 0.0000 20.5568 1.4130 1.3270 58.5673 15.4040 0.1166 11.0273 10.9326 23.1756 -5.5862 0.9552 -0.2962 0.0000 0.0000 0.0000 -5.0478 -2.2643 0.8210 -176.3664 41.8429 173.7242 -0.5403 74.0177 168.8549 0.0000 0.0000 -0.0000
-72.5873 39.5687 -5.0045 -28.3549 84.6607 -26.5140 0.0000 0.0000 0.0000 2.0113 -7.2592 -5.6737 -7.3193 -13.1868 22.9173 7.5845 0.2309 -15.8081 0.0000 0.0000 -0.0000 0.0000 0.0000 0.0000 5.0994 -1.0203 -15.9852 3.8489 -1.5858 24.1135 0.0000 0.0000 0.0000 -1.7737 6.7970 -4.1785 0.0000 0.0000 0.0000 -21.7387 -2.4279 1.6663 -57.7368 -16.3315 -18.2661 -12.2673 2.7385 35.5740 16.2143 -1.5194 -0.9534 0.0000 0.0000 0.0000 20.7116 1.4244 1.3373 58.4913 15.4267 -0.1323 11.0499 10.8342 23.5017 -5.4173 0.9769 -0.2879 0.0000 0.0000 0.0000 -5.0335 -2.2508 0.7663 -176.3729 41.5477 173.7143 -0.4707 73.7204 168.9490 0.0000 0.0000 -0.0000
-72.5929 39.5725 -4.9979 -28.7153 84.6627 -26.8411 0.0000 0.0000 0.0000 2.0592 -7.2250 -5.6856 -7.3028 -13.2237 22.8454 7.6062 0.2305 -15.7695 0.0000 0.0000 -0.0000 0.0000 0.0000 0.0000 5.2028 -1.0093 -15.9999 3.7284 -1.5502 24.1230 0.0000 0.0000 0.0000 -1.6242 6.8610 -4.1600 0.0000 0.0000 0.0000 -21.6743 -2.3884 1.6516 -57.7441 -16.3735 -18.2689 -12.2553 2.8022 35.6971 16.0532 -1.5547 -0.9483 0.0000 0.0000 0.0000 20.8345 1.5431 1.3752 58.4261 15.3687 -0.4270 11.0424 10.7685 23.8641 -5.1477 1.0011 -0.2740 0.0000 0.0000 0.0000 -4.9775 -2.1996 0.7215 -176.4041 41.9162 173.7112 -0.5602 74.0223 168.8289 0.0000 0.0000 -0.0000
-72.5990 39.5764 -4.9926 -29.1598 84.6856 -27.2585 0.0000 0.0000 0.0000 2.0959 -7.2086 -5.6874 -7.2916 -13.2897 22.7823 7.5688 0.2339 -15.7282 0.0000 0.0000 -0.0000 0.0000 0.0000 0.0000 5.2081 -1.0054 -16.0044 3.7443 -1.5620 24.1352 0.0000 0.0000 0.0000 -1.5395 6.5342 -4.0037 0.0000 0.0000 0.0000 -21.5616 -2.2850 1.6165 -57.8590 -16.4849 -18.2363 -12.2457 2.8899 35.8735 15.7619 -1.6416 -0.9419 0.0000 0.0000 0.0000 20.8299 1.6520 1.4046 58.4421 15.3075 -0.5125 11.0173 10.7811 23.9790 -5.0098 1.0212 -0.2664 0.0000 0.0000 0.0000 -4.9390 -2.1756 0.6850 -176.4047 42.1211 173.7106 -0.6499 74.1446 168.7099 0.0000 0.0000 -0.0000
-72.6053 39.5769 -4.9874 -29.3317 84.7178 -27.4257 0.0000 0.0000 0.0000 2.1110 -7.2019 -5.7046 -7.3269 -13.3411 22.8040 7.5406 0.2361 -15.7265 0.0000 0.0000 -0.0000 0.0000 0.0000 0.0000 5.1363 -1.0126 -15.9374 3.8409 -1.5967 24.0779 0.0000 0.0000 0.0000 -1.4797 6.0203 -3.8800 0.0000 0.0000 0.0000 -21.4173 -2.2002 1.5851 -58.0240 -16.5155 -18.1840 -12.2618 2.8859 35.7709 15.6660 -1.5549 -0.9248 0.0000 0.0000 0.0000 20.7653 1.6787 1.4088 58.4978 15.3112 -0.5510 11.0321 10.7486 24.0021 -5.0599 1.0461 -0.2636 0.0000 0.0000 0.0000 -4.9545 -2.2083 0.6702 -176.3465 41.5375 173.7183 -0.5924 73.5384 168.7880 0.0000 0.0000 -0.0000
-72.6101 39.5762 -4.9813 -29.2968 84.7360 -27.4077 0.0000 0.0000 0.0000 2.1229 -7.1855 -5.7170 -7.3759 -13.3578 22.8548 7.5533 0.2343 -15.7430 0.0000 0.0000 -0.0000 0.0000 0.0000 0.0000 5.0742 -1.0044 -15.8010 3.9144 -1.6007 23.9370 0.0000 0.0000 0.0000 -1.4121 5.6138 -3.8300 0.0000 0.0000 0.0000 -21.2998 -2.2241 1.5855 -58.1427 -16.4078 -18.1635 -12.2667 2.7662 35.6385 15.7962 -1.3695 -0.9087 0.0000 0.0000 0.0000 20.7589 1.6545 1.4019 58.4871 15.3543 -0.8078 11.1050 10.5753 24.2136 -5.1270 1.0676 -0.2638 0.0000 0.0000 0.0000 -4.9847 -2.2430 0.6856 -176.2705 40.7292 173.7412 -0.4980 72.7602 168.9160 0.0000 0.0000 -0.0000
